<svg xmlns="http://www.w3.org/2000/svg" version="1.2" viewBox="0 0 72.2383 96.1654">
  <g/>
  <g/>
  <g>
    <path fill="#014cb1" d="M71.776504 6.9970385l.446429 78.8841375a8.75916 8.75916 0 0 1-7.14282 10.120584l-57.5991175.325971a8.75916 8.75916 0 0 1-7.25723003-10.03909l-.446429-78.8841375A7.2 7.2 0 0 1 6.9367745.16387151l57.5991175-.325971a7.2 7.2 0 0 1 7.240612 7.15913799M44.126754 51.05162a4.25197 4.25197 0 1 0-8.503784.04813 4.25197 4.25197 0 1 0 8.503784-.04813zM8.3867485 5.9157575a1.417325 1.417325 0 1 0-2.834604.01604 1.417325 1.417325 0 1 0 2.834604-.01604zm7.1998845-.04075a1.4173252 1.4173252 0 0 0-2.834605.01604 1.4173252 1.4173252 0 0 0 2.834605-.01604zm7.199885-.04075a1.4173252 1.4173252 0 0 0-2.834605.01604 1.4173252 1.4173252 0 0 0 2.834605-.01604zm7.199884-.04075a1.417325 1.417325 0 1 0-2.834604.01604 1.417325 1.417325 0 1 0 2.834604-.01604zm7.199885-.04075a1.4173252 1.4173252 0 0 0-2.834605.01604 1.4173252 1.4173252 0 0 0 2.834605-.01604zm7.199885-.04075a1.4173252 1.4173252 0 0 0-2.834605.01604 1.4173252 1.4173252 0 1 0 2.834605-.01604zm7.199884-.04075a1.417325 1.417325 0 1 0-2.834604.01604 1.417325 1.417325 0 1 0 2.834604-.01604zm7.199885-.04075a1.417325 1.417325 0 0 0-2.834604.01604 1.417325 1.417325 0 1 0 2.834604-.01604zm7.199835-.04075a1.417325 1.417325 0 1 0-2.834604.01604 1.417325 1.417325 0 1 0 2.834604-.01604zm2.17163 83.1944725a3.11811 3.11811 0 0 0-6.23612.03529 3.11811 3.11811 0 1 0 6.23612-.03529zm-57.599108.325971a3.11811 3.11811 0 1 0-6.2361195.03529 3.11811 3.11811 0 0 0 6.2361195-.03529z"/>
    <path stroke="#fff" stroke-linecap="round" stroke-width="1.15199995" d="M15.848422 10.080113h-2.879997M12.968425 10.080113l1.439998 1.440003M14.408423 11.520116l1.439999-1.440003M63.368462 11.520116h2.879982M66.248444 11.520116l-1.43998-1.440003M64.808464 10.080113l-1.440002 1.440003M51.848423 10.080113h-2.880001M48.968422 10.080113l1.440002 1.440003M50.408424 11.520116l1.439999-1.440003M34.568424 11.520116h2.880001M37.448425 11.520116l-1.440002-1.440003M36.008423 10.080113l-1.439999 1.440003M30.248423 10.080113h-2.880001M27.368422 10.080113l1.440002 1.440003M28.808424 11.520116l1.439999-1.440003M59.048424 10.080113h-2.880001M56.168423 10.080113l1.439998 1.440003M57.608421 11.520116l1.440003-1.440003M41.768425 11.520116h2.879997M44.648422 11.520116l-1.439998-1.440003M43.208424 10.080113l-1.439999 1.440003M5.768424 11.520116h2.8800011M8.6484251 11.520116l-1.4399986-1.440003M7.2084265 10.080113L5.768424 11.520116"/>
    <g transform="rotate(180 36.0638115 48.0827585)">
      <text fill="#fff" stroke-width="0" font-family="OCRA" font-size="4.17600012" transform="rotate(-90 71.1823 12.0231)">
        VIN
      </text>
    </g>
    <g transform="rotate(180 36.0638115 48.0827585)">
      <text fill="#fff" stroke-width="0" font-family="OCRA" font-size="4.17600012" transform="rotate(-90 45.98228 37.22312)">
        3.3V
      </text>
    </g>
    <g transform="rotate(180 36.0638115 48.0827585)">
      <text fill="#fff" stroke-width="0" font-family="OCRA" font-size="4.17600012" transform="rotate(-90 69.3823 17.4231)">
        GND
      </text>
    </g>
    <g transform="rotate(180 36.0638115 48.0827585)">
      <text fill="#fff" stroke-width="0" font-family="OCRA" font-size="4.17600012" transform="rotate(-90 53.1823 30.0231)">
        VBAT
      </text>
    </g>
    <g transform="rotate(180 36.0638115 48.0827585)">
      <text fill="#fff" stroke-width="0" font-family="OCRA" font-size="4.17600012" transform="rotate(-90 60.3823 22.8231)">
        TX
      </text>
    </g>
    <g transform="rotate(180 36.0638115 48.0827585)">
      <text fill="#fff" stroke-width="0" font-family="OCRA" font-size="4.17600012" transform="rotate(-90 63.9823 19.2231)">
        RX
      </text>
    </g>
    <g transform="rotate(180 36.0638115 48.0827585)">
      <text fill="#fff" stroke-width="0" font-family="OCRA" font-size="4.17600012" transform="rotate(-90 49.5823 33.6231)">
        EN
      </text>
    </g>
    <g transform="rotate(180 36.0638115 48.0827585)">
      <text fill="#fff" stroke-width="0" font-family="OCRA" font-size="4.17600012" transform="rotate(-90 56.7823 26.4231)">
        FIX
      </text>
    </g>
    <g transform="rotate(180 36.0638115 48.0827585)">
      <text x="14.8792" y="11.52" fill="#fff" stroke-width="0" font-family="OCRA" font-size="4.17600012">
        Breakout v3
      </text>
    </g>
    <g transform="rotate(180 38.8010675 47.65056)">
      <text x="29.2792" y="18.360001" fill="#fff" stroke-width="0" font-family="OCRA" font-size="3.34080005">
        adafruit!
      </text>
    </g>
    <g transform="rotate(180 36.0638115 48.0827585)">
      <text x="2.6391799" y="27.405399" fill="#fff" stroke-width="0" font-family="OCRA" font-size="4.17600012">
        FIX
      </text>
    </g>
    <g transform="rotate(180 36.0638115 48.0827585)">
      <text fill="#fff" stroke-width="0" font-family="OCRA" font-size="4.17600012" transform="rotate(-90 75.1423 8.0631)">
        PPS
      </text>
    </g>
    <g transform="rotate(180 36.0638115 48.0827585)">
      <text x="14.8792" y="5.4453502" fill="#fff" stroke-width="0" font-family="OCRA" font-size="4.17600012">
        Ultimate GPS
      </text>
    </g>
    <g transform="rotate(180 36.0638115 48.0827585)">
      <path stroke="#fff" stroke-linecap="round" stroke-width=".86400002" d="M60.959202 25.5373h2.879997"/>
    </g>
    <g transform="rotate(180 36.0638115 48.0827585)">
      <path stroke="#fff" stroke-linecap="round" stroke-width=".86400002" d="M66.7192 25.673401h2.879997"/>
    </g>
    <g transform="rotate(180 36.0638115 48.0827585)">
      <path stroke="#fff" stroke-linecap="round" stroke-width=".86400002" d="M65.279198 53.393398v2.880001"/>
    </g>
    <g transform="rotate(180 36.0638115 48.0827585)">
      <path stroke="#fff" stroke-linecap="round" stroke-width=".36000001" d="M63.881699 63.155899V67.9748M63.881699 67.9748h-3.684998M60.196701 67.9748v-4.818901M60.196701 63.155899h3.684998M63.739899 66.699203h-3.401497M60.338402 66.699203v-.283401M60.338402 66.415802h3.401497"/>
    </g>
    <g transform="rotate(180 36.0638115 48.0827585)">
      <path stroke="#fff" stroke-linecap="round" stroke-width=".57599998" d="M65.324501 31.949301h5.669296M70.993797 31.949301v10.4881M70.993797 42.437401h-5.669296M65.324501 42.437401v-10.4881"/>
    </g>
    <g transform="rotate(180 36.0638115 48.0827585)">
      <path fill="none" stroke="#fff" stroke-linecap="round" stroke-width=".43200001" d="M6.30721 34.6054l-1.08-1.44H7.3872l-1.07999 1.44m.864-1.152h-1.728 1.728m-.324.432h-1.08 1.08"/>
    </g>
    <g transform="rotate(180 36.0638115 48.0827585)">
      <path stroke="#fff" stroke-linecap="round" stroke-width=".86400002" d="M4.7311502 45.405399h2.87997"/>
    </g>
    <g transform="rotate(180 36.0638115 48.0827585)">
      <path stroke="#fff" stroke-linecap="round" stroke-width=".86400002" d="M63.839199 37.193401h-2.879997"/>
    </g>
    <g transform="rotate(180 36.0638115 48.0827585)">
      <path stroke="#fff" stroke-linecap="round" stroke-width=".86400002" d="M65.931099 66.645401h2.879997"/>
    </g>
    <g transform="rotate(180 36.0638115 48.0827585)">
      <circle cx="7.31916" cy="7.1999998" r="5.1023598" fill="none" stroke="#fff" stroke-width=".57599998"/>
    </g>
    <g transform="rotate(180 36.0638115 48.0827585)">
      <circle cx="64.919197" cy="7.1999998" r="5.1023598" fill="none" stroke="#fff" stroke-width=".57599998"/>
    </g>
    <g transform="rotate(180 36.0638115 48.0827585)">
      <path stroke="#fff" stroke-linecap="round" stroke-width=".36000001" d="M55.743401 19.2104h3.684997M59.428398 19.2104v-7.3701M48.089901 11.8403v7.3701M48.089901 19.2104h3.684998M55.743401 11.8403h3.684997M48.089901 11.8403h3.684998M55.743401 19.4939h3.684997M48.089901 19.4939h3.684998M55.743401 19.7773h3.684997M48.089901 19.7773h3.684998M59.428398 19.7773v-.5669M55.743401 19.7773v-.5669M51.774899 19.7773v-.5669M48.089901 19.7773v-.5669"/>
    </g>
    <path stroke="#fff" stroke-linecap="round" stroke-width=".57599998" d="M60.125622 27.002918v45.354397M14.771224 72.357315V27.002918M54.456322 72.357315H20.440523M16.188623 72.357315h-1.417399M60.125622 72.357315h-1.417401"/>
    <g transform="rotate(180 36.0638115 48.0827585)">
      <path stroke="#fff" stroke-linecap="round" stroke-width=".57599998" d="M67.546898 42.596199h-4.5355M67.546898 51.9505h-4.5355M68.2556 46.1395v2.267799"/>
    </g>
    <path fill="#9a916c" d="M11.854423 66.1779175v3.5149601H7.6024532v-3.5149601zM11.854424 71.563518v3.5149601H7.6024542V71.563518zM6.094424 66.04181951v3.5149601H1.8424542v-3.5149601zM6.094423 71.4274195v3.5149601H1.8424532v-3.5149601zM11.298823 43.458115H7.7838629v-4.2519698h3.5149601zM5.9130239 43.458115H2.3980638v-4.2519698h3.5149601zM8.954524 34.852188v-2.83465h2.26772v2.83465zM8.953721 29.182898v-2.83465h2.26772v2.83465zM6.094423 54.437221v3.68504H1.8424532v-3.68504zM6.094423 59.8222205v3.68504H1.8424532v-3.68504z"/>
    <rect width="2.83465" height="2.83465" x="-20.505823" y="-65.13752" fill="#9a916c" rx="1.41732" ry="1.41732" transform="scale(-1)"/>
    <rect width="2.83465" height="2.83465" x="-67.24057" y="-36.465015" fill="#9a916c" rx="1.41732" ry="1.41732" transform="scale(-1)"/>
    <circle cx="-7.2084265" cy="-5.7601132" r="1.96866" fill="none" stroke="#9a916c" stroke-width="1.10267997" transform="scale(-1)"/>
    <circle cx="-14.408423" cy="-5.7601132" r="1.96866" fill="none" stroke="#9a916c" stroke-width="1.10267997" transform="scale(-1)"/>
    <circle cx="-21.608423" cy="-5.7601132" r="1.96866" fill="none" stroke="#9a916c" stroke-width="1.10267997" transform="scale(-1)"/>
    <circle cx="-28.808424" cy="-5.7601132" r="1.96866" fill="none" stroke="#9a916c" stroke-width="1.10267997" transform="scale(-1)"/>
    <circle cx="-36.008423" cy="-5.7601132" r="1.96866" fill="none" stroke="#9a916c" stroke-width="1.10267997" transform="scale(-1)"/>
    <circle cx="-43.208424" cy="-5.7601132" r="1.96866" fill="none" stroke="#9a916c" stroke-width="1.10267997" transform="scale(-1)"/>
    <circle cx="-50.408424" cy="-5.7601132" r="1.96866" fill="none" stroke="#9a916c" stroke-width="1.10267997" transform="scale(-1)"/>
    <circle cx="-57.608421" cy="-5.7601132" r="1.96866" fill="none" stroke="#9a916c" stroke-width="1.10267997" transform="scale(-1)"/>
    <circle cx="-64.808464" cy="-5.7601132" r="1.96866" fill="none" stroke="#9a916c" stroke-width="1.10267997" transform="scale(-1)"/>
    <path fill="#9a916c" d="M64.119643 63.555717h3.4015801v3.4015801H64.119643zM64.119643 57.602717h3.4015801v3.4015801H64.119643zM68.082419 46.309777v3.5149601h-4.2519698V46.309777zM68.082422 51.695577v3.5149601h-4.2519698V51.695577zM7.602323 63.422519v-3.5149601h4.2519698v3.5149601zM7.602923 58.036719v-3.5149601h4.2519698v3.5149601zM6.88244 25.070218v3.5149601H2.6304702V25.070218zM6.882423 30.455218v3.5149601H2.6304532V30.455218z"/>
    <circle cx="-64.808464" cy="-88.965515" r="3.68504" fill="none" stroke="#9a916c" stroke-width="1.13385999" transform="scale(-1)"/>
    <circle cx="-7.2084265" cy="-88.965515" r="3.68504" fill="none" stroke="#9a916c" stroke-width="1.13385999" transform="scale(-1)"/>
    <path fill="#9a916c" d="M13.2661235 83.75822v-6.2362199h2.4094501V83.75822zM21.0614235 83.758319v-6.2362199h2.4094501v6.2362199zM16.9514225 77.80552v-2.9763801h2.83465V77.80552zM16.9511532 86.45122v-2.9763801h2.83465V86.45122zM57.999723 25.585917v5.6692901h-2.83465V25.585917zM53.747723 25.5855175v5.6692901h-2.83465v-5.6692901zM49.495723 25.5859165v5.6692901h-2.83465v-5.6692901zM45.243823 25.58551651v5.6692901h-2.83465v-5.6692901zM40.991823 25.5861155v5.6692901h-2.83465v-5.6692901zM36.739923 25.5860175v5.6692901h-2.83465v-5.6692901zM32.487926 25.586017v5.6692901h-2.83465V25.586017zM28.235926 25.586016v5.6692901h-2.83465V25.586016zM23.983926 25.585915v5.6692901h-2.83465V25.585915zM19.731926 25.585918v5.6692901h-2.83465V25.585918zM16.8971245 73.774619v-5.6692901h2.83465v5.6692901zM21.1494245 73.774722v-5.6692901h2.83465v5.6692901zM25.4012245 73.774621v-5.6692901h2.83465v5.6692901zM29.6532245 73.77462v-5.6692901h2.83465V73.77462zM33.905124 73.774619v-5.6692901h2.83465v5.6692901zM38.157124 73.774581v-5.6692901h2.83465v5.6692901zM42.409124 73.774637v-5.6692901h2.83465v5.6692901zM46.661024 73.774657v-5.6692901h2.83465v5.6692901zM50.913024 73.774696v-5.6692901h2.83465v5.6692901zM55.164924 73.774637v-5.6692901h2.83465v5.6692901zM8.833323 52.364619v-1.55905h3.4015801v1.55905zM8.832224 49.671619v-1.55905h3.4015801v1.55905zM8.833122 46.978819v-1.55905h3.4015801v1.55905zM1.462122 46.978722v-1.55905h3.4015801v1.55905zM1.462323 52.364522v-1.55905h3.4015801v1.55905z"/>
    <path fill="#dcdcdc" d="M7.956923 73.179717v-5.103c0-.156.127-.283.283-.283h2.977c.156 0 .283.127.283.283v5.102c0 .157-.127.283-.283.283h-2.977c-.156.001-.283-.126-.283-.282z"/>
    <path fill="#6e554b" d="M11.499923 68.856717v3.543h-3.543v-3.543z"/>
    <path fill="#dcdcdc" d="M2.1969235 73.043617v-5.103c0-.156.127-.283.283-.283h2.977c.156 0 .283.127.283.283v5.102c0 .157-.127.283-.283.283h-2.977c-.156.001-.283-.126-.283-.282z"/>
    <path fill="#6e554b" d="M5.7399235 68.720617v3.543h-3.543v-3.543z"/>
    <path fill="#dcdcdc" d="M4.2969235 39.560617h5.103c.156 0 .283.127.283.283v2.977c0 .156-.127.283-.283.283h-5.102c-.157 0-.283-.127-.283-.283v-2.977c-.001-.156.126-.283.282-.283z"/>
    <path fill="#6e554b" d="M8.6199235 43.103617h-3.543v-3.543h3.543z"/>
    <path fill="#dcdcdc" d="M9.662923 34.143617v-7.0869999h.850003v7.0869999z"/>
    <path fill="#303030" d="M8.316923 33.0096171v-4.8189998h3.543v4.8189998z"/>
    <path fill="#666" d="M8.3286 32.584957v-.63320303h3.55568v.63320303z"/>
    <path fill="#dcdcdc" d="M2.1969235 61.523617v-5.103c0-.156.127-.283.283-.283h2.977c.156 0 .283.127.283.283v5.102c0 .157-.127.283-.283.283h-2.977c-.156.001-.283-.126-.283-.282z"/>
    <path fill="#333" d="M5.7399235 57.200617v3.543h-3.543v-3.543z"/>
    <g transform="translate(64.048913 59.446117)">
      <path fill="#dcdcdc" d="M3.543.282v5.103c0 .156-.127.283-.283.283H.283C.127 5.668 0 5.541 0 5.385V.283C0 .126.127 0 .283 0H3.26c.156-.001.283.126.283.282z"/>
      <path fill="red" d="M0 1.062h3.543v3.543H0z"/>
      <circle cx="1.772" cy="2.8329999" r=".56699997" fill="#a00000"/>
    </g>
    <path fill="#dcdcdc" d="M64.184973 53.311617v-5.103c0-.156.127-.283.283-.283h2.977c.156 0 .283.127.283.283v5.102c0 .157-.127.283-.283.283h-2.977c-.156.001-.283-.126-.283-.282z"/>
    <path fill="#333" d="M67.727973 48.988617v3.543h-3.543v-3.543z"/>
    <g>
      <path fill="#dcdcdc" d="M11.499923 56.420617v5.103c0 .156-.127.283-.283.283h-2.977c-.156 0-.283-.127-.283-.283v-5.102c0-.157.127-.283.283-.283h2.977c.156-.001.283.126.283.282z"/>
      <path fill="#333" d="M7.956923 60.743617v-3.543h3.543v3.543z"/>
    </g>
    <g>
      <path fill="#dcdcdc" d="M2.9850235 32.071617v-5.103c0-.156.127-.283.283-.283h2.977c.156 0 .283.127.283.283v5.102c0 .157-.127.283-.283.283h-2.977c-.156.001-.283-.126-.283-.282z"/>
      <path fill="#333" d="M6.5280235 27.748617v3.543h-3.543v-3.543z"/>
    </g>
    <g>
      <path fill="#dcdcdc" d="M48.654265 80.419388c.023.142.1.183.286.243.14197.045 1.08898.347 1.08898.347s.66.249 1.15-.103c.066-.048.134-.102.203-.16-.058.069-.112.137-.159.203-.352.49-.101 1.15-.101 1.15s.30302.947.34902 1.089c.06.186.1.263.243.285.142.023.204-.038.318-.197.087-.12.667-.928001.667-.928001s.441-.550999.257-1.125999c-.025-.077-.055-.159-.089-.242.048.076.096.149.144.214.358.486 1.062.452 1.062.452s.995.004 1.143.004c.195 0 .281-.014.347-.143.065-.128.027-.206-.089-.364-.088-.12-.677-.921002-.677-.921002s-.388-.59-.991001-.592c-.081 0-.168.003-.257.01.087001-.021998.171001-.045998.248001-.070998.573-.19.758002-.870998.758002-.870998s.31-.943999.357-1.085c.060998-.186002.072998-.272002-.029002-.374002-.102-.102-.188-.09-.374-.028-.141.046-1.085.359-1.085.359s-.681.187-.868997.760003c-.025.077-.049.16-.07.247.005997-.090003.008997-.176003.008997-.257003-.004-.603-.594-.99-.594-.99s-.802001-.588-.922003-.675c-.158017-.116-.235997-.154-.365017-.089-.12795.066-.143.152-.14199.347.00101.149.00598 1.143.00598 1.143s-.03298.705.45403 1.062c.06502.048.13802.096.21398.143-.083-.034-.165-.064-.242-.088-.575-.183-1.125.259-1.125.259s-.80696.5809998-.92699.6679998c-.15897.1150002-.21902.1770002-.19699.3190002zm3.425.732c-.108-.017-.162-.248-.12-.515.042-.267.164-.47.273-.453.108.017.162.248.12.515-.042.268-.164.471-.273.453zm1.389-.709c-.05.098-.286.078-.527-.045-.241-.123-.397-.302-.347-.399.05-.098.286-.078.527.045.242.123.397.301.347.399zm-.732-1.334c.191-.191.409-.284.487-.206.077.078-.015.296-.206.487-.191.192-.409.285-.487.207-.078-.078.014-.296.206-.488zm-1.054-.449c.0979999-.05.277.105.4.346.123.242.144.478.046.528-.098.05-.277-.105-.4-.346-.123-.242-.144-.478-.046-.528zm-.254 1.117c.267-.042.498.011.516.119.017.109-.186.231-.453.274-.267.043-.498-.011-.515-.119-.018-.109.18497-.231.452-.274z"/>
    </g>
    <g>
      <g transform="rotate(-90 48.96429 36.355867)">
        <defs>
          <linearGradient id="a">
            <stop offset="0" stop-color="#acacac"/>
            <stop offset=".3611111" stop-color="#e0e0e0"/>
            <stop offset="1" stop-color="#797979"/>
          </linearGradient>
          <linearGradient id="b">
            <stop offset="0" stop-color="#ccc" stop-opacity=".44642857"/>
            <stop offset=".31249991" stop-color="#fff" stop-opacity=".36607143"/>
            <stop offset="1" stop-color="#4c4c4c" stop-opacity=".6339286"/>
          </linearGradient>
          <linearGradient id="c">
            <stop offset="0" stop-color="#e9e9e9"/>
            <stop offset="1" stop-color="#bcbcbc"/>
          </linearGradient>
        </defs>
        <path fill="#fff" d="M7.92 1.01015v9.3986597H-1e-7V1.01015z"/>
        <path fill="#f2f2f2" stroke="#e3e3e3" stroke-width="1.44000006" d="M3.96 7.56001a1.8 1.8 0 1 1 0-3.6 1.8 1.8 0 0 1 0 3.6z"/>
        <path fill="none" stroke="#fbe8b0" stroke-width=".72000003" d="M3.96 8.64005a2.88 2.88 0 0 1 0-5.76 2.88 2.88 0 1 1 0 5.76z"/>
        <path fill="#fbe8b0" fill-rule="evenodd" stroke="#c4c4c4" stroke-width=".21600001" d="M3.96 6.84001a1.08 1.08 0 1 1 0-2.16 1.08 1.08 0 1 1 0 2.16z"/>
        <path fill="#decd87" fill-rule="evenodd" d="M6.84 0v1.08H1.0799998V0zM6.84 10.44005v1.08H1.0799998v-1.08z"/>
        <path fill="#ccc" d="M9.360001 4.6800002v2.1600001H7.9200009V4.6800002z"/>
      </g>
    </g>
    <g>
      <path fill="#dcdcdc" d="M3.021363 52.15211v-1.1339999h7.6540298V52.15211zM3.021363 46.7661129V45.632113h7.6540298v1.1339999zM7.5563628 49.459113v-1.1339999h3.118v1.1339999z"/>
      <path fill="#303030" d="M4.580363 53.002113v-8.2200203h4.5349998v8.2200203z"/>
    </g>
    <g>
      <g transform="translate(14.853339 27.040225)">
        <defs>
          <linearGradient id="d">
            <stop offset="0" stop-color="#ccc"/>
            <stop offset=".25000012" stop-color="#e0e0e0"/>
            <stop offset="1" stop-color="#494949"/>
          </linearGradient>
          <linearGradient id="e">
            <stop offset="0" stop-color="#fff"/>
            <stop offset="1" stop-color="#bcbcbc"/>
          </linearGradient>
        </defs>
        <g transform="translate(29.8228 32.2062)">
          <path fill="green" d="M-29.8228-32.206299h45.354301v45.354301H-29.8228z"/>
          <rect width="42.5196" height="42.5196" x="-28.4055" y="-30.7889" fill="#dbba93" fill-rule="evenodd" rx="3.27074"/>
          <rect width="32.707401" height="32.707401" x="-22.518101" y="-25.882799" fill="#e6e6e6" fill-rule="evenodd" rx="3.27074"/>
          <path fill="#ccc" fill-rule="evenodd" d="M-3.2208-9.52913a3.9249 3.9249 0 0 1-7.8498 0 3.9249 3.9249 0 1 1 7.8498 0z"/>
          <path fill="none" stroke="#000" stroke-width=".98122299" d="M-2.23957-9.52913a4.906115 4.906115 0 0 1-9.81223 0 4.906115 4.906115 0 1 1 9.81223 0z"/>
          <path fill="none" stroke="#fff" stroke-linecap="round" stroke-opacity=".22826089" stroke-width=".65414798" d="M-25.1348-30.4618h35.9781m-38.9218 2.94366c0-1.62575 1.31792-2.94366 2.94366-2.94366M-28.0785 8.46v-35.9781" color="#000" overflow="visible" style="marker:none"/>
          <path fill="none" stroke="#000" stroke-linecap="round" stroke-opacity=".22826089" stroke-width=".65414798" d="M10.8434 11.4036h-35.9781m38.9218-2.94366c0 1.62574-1.31792 2.94366-2.94366 2.94366m2.94366-38.9218V8.4599" color="#000" overflow="visible" style="marker:none"/>
        </g>
      </g>
    </g>
  </g>
</svg>
